<svg xmlns="http://www.w3.org/2000/svg" x="0px" y="0px"  viewBox="0 0 246 210">
<g class="lg-main">
<linearGradient id="SVGID_1" gradientUnits="userSpaceOnUse" x1="1" y1="7" x2="2" y2="7" gradientTransform="matrix(0 130 130 0 122 -205)">
<stop  offset="0" style="stop-color:#9C7F59"/>
<stop  offset="0.08" style="stop-color:#B19072"/>
<stop  offset="0.1" style="stop-color:#C9A491"/>
<stop  offset="0.15" style="stop-color:#DCB5AA"/>
<stop  offset="0.2" style="stop-color:#E9C0BA"/>
<stop  offset="0.25" style="stop-color:#EEC4C0"/>
<stop  offset="0.6" style="stop-color:#EDCBB1"/>
<stop  offset="0.65" style="stop-color:#DCBC9F"/>
<stop  offset="0.8" style="stop-color:#BA9B79"/>
<stop  offset="1" style="stop-color:#92774F"/>
</linearGradient>
<linearGradient id="SVGID_2" gradientUnits="userSpaceOnUse" x1="1" y1="7" x2="2" y2="7" gradientTransform="matrix(0 140 40 0 100 -180)">
<stop  offset="0" style="stop-color:#9C7F59"/>
<stop  offset="0.08" style="stop-color:#B19072"/>
<stop  offset="0.1" style="stop-color:#C9A491"/>
<stop  offset="0.15" style="stop-color:#DCB5AA"/>
<stop  offset="0.2" style="stop-color:#E9C0BA"/>
<stop  offset="0.25" style="stop-color:#EEC4C0"/>
<stop  offset="0.6" style="stop-color:#EDCBB1"/>
<stop  offset="0.65" style="stop-color:#DCBC9F"/>
<stop  offset="0.8" style="stop-color:#BA9B79"/>
<stop  offset="1" style="stop-color:#92774F"/>
</linearGradient>
<path fill="url(#SVGID_1)" d="M143.3,23.7c-7.7-11.2-15.5-18.2-15.6-18.3l-5-4.4l-5,4.4c-0.1,0.1-7.9,7.1-15.6,18.3
C91.9,38.4,86.6,53.7,86.6,67.8c0,14.2,5.4,29.4,15.5,44.1c7.8,11.2,15.5,18.2,15.6,18.3l5,4.5l5-4.5c0.1-0.1,7.9-7,15.6-18.3
c10.1-14.7,15.5-29.9,15.5-44.1C158.8,53.7,153.4,38.4,143.3,23.7z M141.9,111c-7.6,11-15.3,17.9-15.4,18l-3.9,3.4l-3.9-3.4l0,0
c-0.1-0.1-7.7-6.9-15.3-18c-9.9-14.4-15.2-29.4-15.2-43.2c0-13.8,5.3-28.8,15.2-43.2c7.6-11,15.3-17.9,15.4-18l3.9-3.4l3.9,3.4
c0.1,0.1,7.8,7,15.4,18c9.9,14.4,15.2,29.4,15.2,43.2C157.1,81.7,151.8,96.6,141.9,111z"/>
<path fill="url(#SVGID_2)" d="M124.5,8.8l-1.8-1.6l-1.8,1.6h0C120.7,9,113,15.9,105.5,27h0h0v0c-0.2,0.3-0.5,0.7-0.7,1
c0,0,1.1,0.4,2.3,1.3c0.3,0.2,0.6,0.5,0.8,0.8c1.5,1.5,2.6,4.1,0.8,7.9c-0.2,0.4-0.5,0.9-0.7,1.4c0,0,0,0,0,0
c-2.8,4.7-6.1,6.5-8.7,7.1c-0.4,0.1-0.7,0.2-1,0.2c-1.2,0.2-2.2,0.1-2.7,0c-0.1,0-0.2,0-0.3,0c-0.4,1.1-0.8,2.3-1.1,3.4
c0,0,0,0,0,0c-1.7,5.6-2.8,11.6-2.8,17.7c0,32.4,29.3,58.7,29.6,59l1.8,1.6l1.8-1.6c0.3-0.3,29.6-26.6,29.6-59S124.8,9.1,124.5,8.8
z M113.2,36.8c-0.3,4.7-2,9.2-4.9,13.1c-0.4,0-0.9,0-1.3-0.1c-1.4-0.1-2.8-0.3-4.2-0.6C107.5,47,111.5,42,113.2,36.8z M126.5,45.1
c-1.3,0.8-2.6,1.5-4,2c-0.2-4.5-1.5-8.9-4-12.8C122.2,37.2,124.9,40.9,126.5,45.1z M119,32.4c4.8,1.9,9,5.2,11.9,9.6
c-0.1,0.1-0.3,0.2-0.4,0.3c-0.2,0.2-0.4,0.3-0.6,0.5c-0.2,0.1-0.3,0.2-0.5,0.3c-0.2,0.2-0.5,0.3-0.7,0.5c-0.1,0.1-0.2,0.2-0.4,0.3
c-0.1,0.1-0.2,0.1-0.3,0.2C126.2,39.4,123.1,35.4,119,32.4z M120.7,47.9c-1.3,0.5-2.6,0.9-4,1.2c1.3-4.8,1.2-9.8-0.2-14.4
C119.2,38.5,120.7,43.1,120.7,47.9z M124.2,50.3l0.2-0.1c0.2-0.1,0.4-0.2,0.6-0.3c1-0.4,1.9-0.9,2.8-1.5c0.1,0,0.1-0.1,0.1-0.1
c0.3-0.1,0.5-0.3,0.8-0.5c0.3-0.2,0.6-0.4,1-0.6c0,0,0,0,0,0c0.2-0.1,0.3-0.2,0.5-0.3c0.1-0.1,0.3-0.2,0.4-0.3
c0.1-0.1,0.2-0.2,0.4-0.3c0.2-0.1,0.4-0.3,0.6-0.5c0.1,0,0.1-0.1,0.2-0.1c0.3-0.2,0.6-0.4,0.8-0.7c0,0,0,0,0,0
c0.2,0.4,0.3,0.8,0.5,1.1c0.5,1.2,0.8,2.3,1.1,3.5c-11.7,3.7-19.6,9.9-23.4,18.3c-3.2,7.1-2.9,14.5-1.8,20.2
c-1.1-2.6-1.8-5.4-2.1-8.3c-0.2-1.7-0.2-3.4-0.1-5C107.7,64.4,114.4,54.9,124.2,50.3z M113.7,90.5c-1.3-12,2.4-25,20.7-31.6
c-0.3,1.8-0.8,3.5-1.5,5.1C115.8,69.7,113.4,82.6,113.7,90.5z M131.7,66.3c0,0-0.8,2.6-7.8,8.3c-7,5.7-7.9,9.5-7.9,9.5
c0.2-2.3,1.1-4.5,2.1-6.4c0.9-1.7,2-3.3,3.2-4.7c0,0,0.1-0.1,0.1-0.1c0,0,0.1-0.1,0.1-0.1c0,0,0,0,0,0l0,0
C124.1,70.1,127.5,68,131.7,66.3L131.7,66.3z M112.1,93c-1.8-5.6-3.6-15.2,0.4-24.1c3.5-7.9,10.9-13.7,22-17.2
c0.2,1.6,0.3,3.3,0.1,4.9c0,0.1,0,0.3,0,0.4C113.2,64.2,110,79.5,112.1,93z M114.8,49.4c-1.4,0.2-2.8,0.4-4.2,0.4
c2.8-4.2,4.4-9.1,4.5-14C116.2,40.3,116.2,45,114.8,49.4z M122.7,123.5c-4.5-4.3-27.6-27.8-27.6-55.6c0-5.6,1-11.1,2.5-16.3
c2.9,1,6,1.6,9.1,1.8c0.9,0.1,1.8,0.1,2.6,0.1c1.5,0,2.9-0.1,4.4-0.3c-6,5.6-9.9,13.3-10.5,21.6c-0.1,1.9-0.1,3.8,0.1,5.6
c1.2,12,8.9,22.4,20.3,27.3c0.2,0.1,0.4,0.2,0.6,0.2c0.1,0,0.1,0,0.2,0.1l0,0c1.6,0.6,3.4,0.9,5.1,0.9c2.4,0,4.8-0.6,6.9-1.8
c0,0,0,0,0,0c0,0,0,0,0,0C130.6,115.6,124.7,121.5,122.7,123.5z M142.3,97.4C142.3,97.4,142.3,97.4,142.3,97.4
c0-2.3-0.8-4.6-2.2-6.5c-1.9-2.4-4.7-3.7-7.7-3.7c-2,0-3.9,0.6-5.6,1.8c-3.5,2.5-4.3,7.4-1.7,10.8c1.1,1.4,2.6,2.3,4.4,2.6
c1.8,0.3,3.6-0.2,5-1.2c0.8-0.6,1-1.7,0.4-2.5c-0.6-0.8-1.7-1-2.6-0.4c-0.7,0.5-1.5,0.7-2.3,0.6c-0.8-0.1-1.5-0.5-2-1.2
c-1.4-1.8-1-4.5,0.9-5.8c2.6-1.8,6.2-1.3,8.2,1.2c1.2,1.6,1.7,3.6,1.4,5.6c-0.2,1.5-0.9,2.8-1.9,3.9c0,0-0.1,0.1-0.1,0.1
c-0.1,0.1-0.3,0.3-0.4,0.4c-3.6,3.2-11.5,4-16.2-4.5c-0.3-0.6-0.6-1.1-0.8-1.7c-3.7-9.5,1.9-14.3,10.3-22.1h0c0,0,0,0,0,0
c8.4-7.8,8.9-16.8,8.9-16.8h0c0.6-4.5-0.1-9.7-2.9-15.3c-0.5-1.1-1.1-2.1-1.8-3.1l-0.1-0.1l0,0c-6.8-10.3-17.5-12.3-23.5-12.5
c5.4-7.6,10.7-12.9,12.6-14.7c4.5,4.3,27.6,27.8,27.6,55.6C150.3,78.6,146.8,88.8,142.3,97.4C142.3,97.4,142.3,97.4,142.3,97.4z"/>
</g>

<g class="lg-maris">
<path fill="#FFFFFF" d="M6.8,171.1v-1.4h1.5c1.5,0,2.1-0.2,2.4-0.8c0.4-0.7,0.4-2,0.4-4.2V148H6.3c-2.7,0-3.1,1.2-4,4.7l-0.1,0.2H1
l0.1-6.3h24.1l0.2,6.3H24v-0.2c-0.8-4.7-2.3-4.7-5.2-4.7h-3.6v16.6c0,4.7,0,5.1,2.8,5.1h1.5v1.4H6.8z"/>
<path fill="#FFFFFF" d="M47.1,171.1v-1.4h1.1c1.5,0,2.1-0.2,2.4-0.8c0.3-0.7,0.3-2,0.3-4.2V159H39v5.5c0,4.7,0,5.1,2.8,5.1h0.9v1.4
H31.2v-1.4h0.9c2.8,0,2.8-0.5,2.8-5.1v-11.8c0-4.9,0-4.9-3.4-4.9h-0.3v-1.4h11.5v1.4h-0.3c-3.4,0-3.4,0-3.4,4.9v4.4h12v-4.4
c0-4.8,0-4.9-2.9-4.9h-1v-1.4h11.6v1.4h-0.3c-3.3,0-3.3,0-3.3,4.9v11.8c0,4.7,0,5.1,2.8,5.1h0.8v1.4L47.1,171.1L47.1,171.1z"/>
<path fill="#FFFFFF" d="M66,171.1v-1.4h0.8c2.9,0,2.9-0.5,2.9-5.1v-11.8c0-4.8-0.1-4.9-2.9-4.9h-0.3v-1.4h17.9l0.6,6.6h-1.4
l-0.1-0.2c-1.1-4.9-2.8-4.9-6.7-4.9h-3.1v9.5H76c3.2,0,3.3-0.6,3.3-3.3v-0.3h1.4v8.8h-1.4v-0.3c0-3.5-0.7-3.5-3.3-3.5h-2.3v5.4
c0,5.5,0.2,5.5,3.3,5.5h1.8c2,0,5.4,0,7-6.4l0.1-0.2h1.4l-0.6,8H66V171.1z"/>
<path fill="#FFFFFF" d="M126,171.1v-1.4h1.1c2.8,0,2.8-0.5,2.8-5.1v-14l-9.1,20.5h-1.2l-9.2-20.5v14.7c0,3,0.9,4.2,3.6,4.4h0.3v1.4
h-9.2v-1.4h0.3c2-0.2,3.6-0.7,3.6-4.7v-12.2c0-4.8,0-4.9-2.9-4.9h-1v-1.4h7.8l8.7,19.4l8.6-19.4h8v1.4H137c-2.9,0-3,0-3,4.9v11.8
c0,4.7,0,5.1,2.8,5.1h1.4v1.4H126z"/>
<path fill="#FFFFFF" d="M159.7,171.3v-1.4h0.6c0.8,0,1.4,0,1.9-0.2c0.4-0.1,0.6-0.4,0.6-0.9c0-0.3-0.2-0.9-0.4-1.4l-2.1-5.1h-8.8
l-1.4,3.3c-0.2,0.6-0.6,1.7-0.6,2.2c0,0.9,0.6,2,2.3,2h0.3v1.4h-7.8v-1.4h0.3c0.6,0,2.2-0.3,3.2-2.7l8.8-20.8h1.1l9,21
c0.6,1.3,1.2,2.5,3,2.5h0.3v1.4L159.7,171.3L159.7,171.3z M159.5,161.1l-3.8-9.2l-3.8,9.2H159.5z"/>
<path fill="#FFFFFF" d="M195.4,171.1L195.4,171.1c-0.7-0.5-1.7-1.3-3.4-3.6l-3.8-5.2c-2.1-2.8-2.7-2.8-4-2.8H184v5.2
c0,2.2,0,3.5,0.3,4.2c0.3,0.6,0.9,0.8,2.4,0.8h1.5v1.4H176v-1.4h1.1c2.8,0,2.8-0.5,2.8-5.1v-11.8c0-4.9-0.1-4.9-3-4.9h-0.7v-1.4
h0.3c2.6-0.2,6.6-0.3,9-0.3h0.2c6.8,0,10.5,2.3,10.5,6.5c0,3.2-2.4,5.6-6.5,6.2c1.4,0.9,2.9,3,2.9,3l3.1,4c1.4,1.8,3.3,3.8,6.2,3.8
h0.3v1.4L195.4,171.1L195.4,171.1z M185.7,158.1c4.2,0,6-1.5,6-5.1c0-4.4-2.5-5.3-6.5-5.3c-0.5,0-0.9,0-1.2,0.1v10.4L185.7,158.1
L185.7,158.1z"/>
<path fill="#FFFFFF" d="M207.8,171.1v-1.4h1c2.8,0,2.8-0.5,2.8-5.1v-11.8c0-4.8-0.1-4.9-3-4.9h-0.8v-1.4h11.6v1.4h-0.8
c-2.9,0-3,0-3,4.9v11.8c0,4.7,0,5.1,2.8,5.1h1v1.4H207.8z"/>
<path fill="#FFFFFF" d="M236.3,171.5c-3.3,0-5.5-1.6-6.6-2.8c-0.2,0.3-0.4,0.9-0.6,1.9v0.2h-1.4v-8.3h1.4v0.2
c1,4.8,3.3,7.3,6.9,7.3c3.3,0,5.1-2.3,5.1-4.4c0-3-2.9-4.2-5.3-5.2l-0.5-0.2c-3.7-1.6-7.5-3.3-7.5-7.9c0-3.1,2.3-6.2,6.7-6.2
c3.1,0,4.7,1.4,5.6,2.4c0.5-0.7,0.6-1.3,0.7-1.6v-0.2l0.3-0.1h1.1v6.8h-1.3l-0.1-0.2c-1.3-5.2-5-5.6-6.2-5.6
c-2.7,0-3.9,1.7-3.9,3.4c0,2.5,2.4,3.8,5.6,5.1c4.9,2.1,7.9,3.7,7.9,8.3C244.2,167.7,242.1,171.5,236.3,171.5"/>
</g>


<g class="lg-vungtau">
<path fill="#FFFFFF" d="M89.1,185.5c0-0.8-0.4-1.3-1.2-1.3c-0.6,0-0.9,0.1-1.2,0.5c-0.2,0.3-0.4,0.7-0.4,1.1c0,0.4-0.1,1.1-0.3,1.9
c-0.1,0.8-0.3,1.8-0.5,2.8s-0.5,2-0.8,3.1c-0.3,1-0.7,1.9-1,2.7c-0.6,1.3-1,2.2-2,2.2c-0.7,0-1.1-0.7-1.6-1.9
c-1.3-3.3-2.3-6.8-3-10.4c-0.2-1-0.7-1.3-1.2-1.3s-1,0.2-1.3,0.5s-0.5,0.8-0.5,1.3c0,0.3,0,0.6,0.1,0.9c0.2,1.4,0.7,3.4,1.4,5.5
c0.6,2,1.4,4.2,2.3,5.9c0.5,1,1,1.7,1.4,2.3c0.5,0.6,1.1,0.9,1.8,0.9c1.8,0,3.1-1.8,4.4-4.2c2.1-3.9,3.4-9.2,3.7-11.8
C89.1,185.9,89.1,185.6,89.1,185.5z"/>
<path fill="#FFFFFF" d="M129.6,195.4c-2.7,0-2.2,3.5-4.9,3.5c-1.4,0-2-1.7-2-2.8c0-0.8,0.2-1.5,0.7-2s1.1-0.8,1.9-0.8
c0.6,0,1,0.1,1.3,0.3s0.7,0.5,1.1,0.9c0.2,0.2,0.6,0.4,0.9,0.4c0.9,0,1.4-0.7,1.4-1.7c0-1.3-1.6-2.7-3.8-2.7c-1.4,0-2.9,0.8-4.1,2
c-0.8,0.8-1.4,1.8-1.7,2.9l-0.4,1c-0.4,0.9-0.5,1.8-1.5,1.8c-1.6,0-1.4-6.3-4.1-6.3c-1.5,0-2.5,1.4-3.1,2.8
c-0.6,1.4-1.1,2.7-1.7,2.8c-1.3,0-1.7-6.4-4.2-6.4c-1.8,0-3.1,1.8-4.4,5.6c-0.4,1-0.7,1.8-1.7,1.8c-0.9,0-0.9-1.2-1-3
c-0.1-2.3,0.1-3.5-1.2-3.5c-1.8,0-1.7,1-2,3.3c-0.5,3.2-1.3,3.5-2.2,3.5c-1.1,0-1.4-1.3-1.4-2.8c0-0.9,0.1-1.9,0.1-2.6v-0.1
c0-0.4-0.1-0.7-0.2-1c-0.2-0.3-0.5-0.5-1.1-0.5s-1.5,0.2-1.7,1.4c-0.1,1-0.2,2.3-0.2,3.5c0,2.9,0.7,5.1,3.4,5.1
c2.3,0,3.1-2.1,3.6-3.1c0.2-0.4,0.2-0.5,0.4-0.5c0.1,0,0.2,0.1,0.3,0.4c0.1,0.9,0.2,2.7,2.3,2.7c1.3,0,2.3-0.9,3.1-2.5
c0.2-0.5,0.4-1,0.6-1.5c0-0.1,0.1-0.2,0.1-0.3c0.5-1.2,0.8-1.9,1.8-1.9c2,0,1.8,6.3,4.4,6.3c2.2,0,3.2-5.7,4.9-5.7
c0.9,0,1.3,1.3,1.7,2.7c0.4,1.3,1,2.7,2.5,2.7c1.2,0,2.1-0.7,2.8-2.1c0.5,1.9,1.9,2.9,3.3,2.9c2.3,0,3.5-2,4.1-3.2
c0.1-0.2,0.2-0.3,0.3-0.3c0.3,0,0.3,0.6,0.3,1.9c0,4.1-1.2,5.6-3.7,5.6c-1.6,0-2.4-0.7-3.2-0.7c-0.8,0-1.2,0.6-1.2,1.4
c0,1.6,1.8,1.8,3.6,1.8c3.4,0,7-3,7-8.1C131.1,197.9,131.1,195.4,129.6,195.4z"/>
<path fill="#FFFFFF" d="M147.5,187.1c0.5,0,0.9-0.2,1.1-0.6c0.3-0.4,0.4-0.9,0.4-1.4s-0.3-1-1.1-1.1s-1.7-0.2-2.7-0.2
c-4,0-9.4,0.9-12.2,2.3c-0.6,0.3-0.9,0.8-0.9,1.2c0,0.6,0.3,1,0.9,1c0.2,0,0.5-0.1,0.9-0.2c0.4-0.1,0.7-0.3,1-0.3
c1.2-0.4,2.9-0.7,4.4-0.9c-0.5,1.4-0.9,3-1.2,4.9c-0.3,1.8-0.4,3.7-0.4,5.5c0,1,0,2,0.1,3c0.1,1.1,0.5,1.5,1.3,1.5
c0.3,0,0.5,0,0.8-0.1c0.5-0.1,1-0.6,1-1.2c0-0.7,0-1.8-0.1-2.6c-0.1-1.2-0.1-2.4-0.1-3.8c0-2.5,0.2-5.2,1.1-7.4
C145.4,186.7,146.6,187.1,147.5,187.1z"/>
<path fill="#FFFFFF" d="M170.7,194.5c-0.3,0-0.5,0.2-0.6,0.5l-0.5,1.2c-0.4,1.1-0.7,2-1.7,2c-0.9,0-0.9-1.2-1-3
c-0.1-2.3,0.1-3.5-1.2-3.5c-1.8,0-1.7,1-2,3.3c-0.5,3.2-1.3,3.5-2.2,3.5c-1.1,0-1.4-1.3-1.4-2.8c0-0.9,0.1-1.9,0.1-2.6V193
c0-0.4-0.1-0.7-0.2-1c-0.2-0.3-0.5-0.5-1.1-0.5s-1.5,0.2-1.7,1.4c-0.1,0.7-0.2,1.5-0.2,2.4l-0.4,1c-0.2,0.5-0.4,1-0.6,1.4
c-0.2,0.4-0.5,0.6-0.9,0.6c-0.8,0-1.3-2.1-1.8-3.3c-0.2-0.5-0.6-0.7-1-0.7s-0.8,0.2-1.1,0.6c-0.9,1.6-1.2,3.8-3.4,3.8
c-1.4,0-2.1-1.5-2.1-2.7c0-1.5,1.1-2.9,2.5-2.9s2.2,0.5,3.1,0.5c1,0,1.4-0.7,1.4-1.7c0-1.3-1.6-1.6-2.9-1.6c-3.3,0-6.8,3-6.8,6.6
c0,3.1,1.7,4.7,3.5,4.7c2.6,0,3.6-2.4,4.4-3.6c0.2-0.3,0.3-0.5,0.5-0.5c0.3,0,0.3,0.2,0.5,0.5c0.6,1.4,1,3,2.4,3
c1.1,0,2-0.9,2.8-2.5c0,0,0-0.1,0.1-0.1c0.3,1.8,1.2,3.1,3.2,3.1c2.3,0,3.1-2.1,3.6-3.1c0.2-0.4,0.2-0.5,0.4-0.5
c0.1,0,0.2,0.1,0.3,0.4c0.1,0.9,0.2,2.7,2.3,2.7c1.3,0,2.3-0.9,3.1-2.5c0.4-0.8,0.8-1.9,1.2-3.1c0.1-0.2,0.1-0.3,0.1-0.4
C171.3,194.7,171,194.5,170.7,194.5z"/>
</g>


</svg>

